# Unity3D Mesh Exporter
v 1.0579 1.020986 0.1282836
v -0.4766031 1.018035 0.1870007
v -0.5063686 1.006037 -0.2581023
v 0.2724194 1.036187 0.5775021
v -0.1232743 1.038967 0.5709085
v -0.1248766 1.035944 0.3254973
v 0.2635426 1.244584 0.7232774
v -0.1167924 1.247913 0.7162226
v -0.1189263 1.066702 0.6093498
v 0.34038 1.291107 0.7875779
v 0.3541194 1.630161 0.7647588
v -0.2476943 1.657271 0.7616973
v 0.8766359 1.516468 0.6093401
v 0.4522245 1.511435 0.9240173
v 0.4203539 1.229826 0.8663371
v 1.069844 1.412369 0.2736655
v 0.9212489 1.405654 0.5312946
v 0.7981399 1.244725 0.4600958
vn 0.002946022 -0.9996378 0.02674864
vn 0.002946022 -0.9996378 0.02674864
vn 0.002946022 -0.9996378 0.02674864
vn -0.007232041 -0.9998974 0.01236369
vn -0.007232041 -0.9998974 0.01236369
vn -0.007232041 -0.9998974 0.01236369
vn -0.02041941 -0.5077175 0.8612816
vn -0.02041941 -0.5077175 0.8612816
vn -0.02041941 -0.5077175 0.8612816
vn -0.002046879 0.06723294 0.9977352
vn -0.002046879 0.06723294 0.9977352
vn -0.002046879 0.06723294 0.9977352
vn 0.5819266 -0.2258754 0.7812436
vn 0.5819266 -0.2258754 0.7812436
vn 0.5819266 -0.2258754 0.7812436
vn 0.6565039 -0.6621114 0.3614015
vn 0.6565039 -0.6621114 0.3614015
vn 0.6565039 -0.6621114 0.3614015
f 1/1/1 2/2/2 3/3/3
f 4/4/4 5/5/5 6/6/6
f 7/7/7 8/8/8 9/9/9
f 10/10/10 11/11/11 12/12/12
f 13/13/13 14/14/14 15/15/15
f 16/16/16 17/17/17 18/18/18
